<svg xmlns="http://www.w3.org/2000/svg" viewBox="0 0 32 32">
  <g fill="none">
    <circle cx="16" cy="16" r="16" fill="#FF9900"/>
    <path fill="#000" d="M24.538 17.95c-1.413 1.044-3.463 1.6-5.225 1.6-2.475 0-4.7-.913-6.388-2.437-.131-.119-.013-.281.144-.188 1.813 1.05 4.05 1.687 6.363 1.687 1.563 0 3.275-.325 4.85-.994.238-.1.438.156.256.331z"/>
    <path fill="#000" d="M25.238 17.138c-.181-.231-1.194-.109-1.65-.056-.138.019-.159-.104-.035-.188.806-.569 2.131-.4 2.287-.213.156.194-.044 1.519-.8 2.15-.116.097-.226.044-.175-.081.169-.425.55-1.381.373-1.612z"/>
    <path fill="#000" d="M22.013 12.875v-.563c0-.087.063-.144.138-.144h2.45c.081 0 .144.063.144.144v.481c0 .081-.069.188-.188.363l-1.269 1.813c.469-.013 1.969.069 1.969.069.113.019.144.113.144.175v.6c0 .088-.075.188-.169.169-.875-.438-2.037-.363-2.394.031-.113.119-.231.037-.231-.081v-.569c0-.119.012-.288.113-.45l1.469-2.107h-1.281c-.081 0-.144-.063-.144-.144v.213z"/>
    <path fill="#000" d="M9.806 16.313H8.78c-.097-.006-.175-.081-.181-.175V12.15c0-.106.087-.188.194-.188h.956c.1.006.175.081.188.175v.519h.019c.25-.663.719-1.969 1.825-1.969.956 0 1.413.569 1.431 1.413v2.838c-.012.1-.094.175-.194.175h-1.031c-.1-.006-.181-.081-.188-.175v-2.444c0-.275.025-.963-.438-.963-.438 0-.525.438-.525.963v2.631c0 .1-.087.188-.194.188h-.738z"/>
    <path fill="#000" d="M15.031 12.15c1.238 0 1.906 1.063 1.906 2.413 0 1.306-.738 2.338-1.906 2.338-1.213 0-1.875-1.063-1.875-2.388 0-1.331.669-2.363 1.875-2.363zm0 .875c-.613 0-.65.831-.65 1.35s-.019 1.625.644 1.625c.644 0 .675-.894.675-1.438 0-.35-.013-.769-.113-1.1-.087-.275-.262-.438-.556-.438z"/>
    <path fill="#000" d="M20.3 16.313h-1.025c-.1-.006-.181-.081-.188-.175v-4.175c.013-.094.094-.169.194-.169h.956c.087.006.162.063.181.144v.638h.019c.288-.719.688-1.063 1.394-1.063.456 0 .906.169 1.194.619.269.419.269 1.119.269 1.625v2.294c-.012.094-.094.169-.188.169h-1.037c-.094-.006-.175-.075-.181-.169v-2.381c0-.275.031-.956-.431-.956-.169 0-.325.113-.4.281-.094.213-.113.425-.113.675v2.375c-.006.1-.094.188-.194.188h-.45z"/>
  </g>
</svg>