<svg xmlns="http://www.w3.org/2000/svg" viewBox="0 0 32 32">
  <g fill="none">
    <circle cx="16" cy="16" r="16" fill="#1DB954"/>
    <path fill="#FFF" d="M16 8c-4.419 0-8 3.581-8 8s3.581 8 8 8 8-3.581 8-8-3.581-8-8-8zm3.669 11.538c-.144.237-.45.312-.687.169-1.881-1.15-4.25-1.412-7.044-.775-.269.063-.538-.112-.6-.381-.063-.275.113-.538.381-.6 3.056-.694 5.694-.394 7.781.9.238.144.313.45.169.687zm.981-2.181c-.181.294-.563.394-.856.212-2.156-1.325-5.438-1.712-7.981-.937-.331.1-.675-.087-.775-.419-.1-.331.088-.675.419-.775 2.919-.881 6.544-.456 9.006 1.062.294.182.394.563.187.857zm.087-2.269c-2.581-1.531-6.844-1.669-9.306-.925-.394.119-.813-.106-.931-.5-.119-.394.106-.813.5-.931 2.838-.863 7.556-.694 10.537 1.069.356.212.475.675.262 1.031-.212.35-.675.469-1.031.256h-.031z"/>
  </g>
</svg>