<?xml version="1.0" encoding="UTF-8"?>
<svg width="32" height="32" viewBox="0 0 32 32" xmlns="http://www.w3.org/2000/svg">
  <rect width="32" height="32" rx="16" fill="#FF9900"/>
  <path d="M24.8 16.7c-2.5 1.8-6 2.8-9.1 2.8s-6.7-1-9.1-2.8c-.2-.1-.3.1-.2.3 2.7 4.2 7.5 6.8 12.7 6.8s10-2.6 12.7-6.8c.2-.2 0-.4-.2-.3h-6.8zm4.4-1.2c-.4-.5-4.2.3-6.5.9-.5.1-.6-.4-.1-.7 3.2-2.2 8.4-1.6 9-.8.6.8-1.6 6-5.6 8.5-.5.3-.8.1-.6-.4 1.2-2.5 3.9-8.1 3.8-8.5v1zm-7.2-6.3c.4 0 .7.1 1 .2.4.1.7.3 1 .6.3.3.5.6.7.9.2.4.2.8.2 1.2 0 .5-.1 1-.3 1.4-.2.4-.5.8-.8 1.2-.7.8-1.7 1.4-2.8 1.8-1.1.4-2.4.6-3.8.6h-7.3c-.3 0-.5-.2-.5-.5V9.7c0-.3.2-.5.5-.5h7.3c.4 0 .8 0 1.2.1.4 0 .8.1 1.1.2.4.1.7.2 1 .4.3.1.6.3.8.5.2.2.4.4.5.7.1.2.2.5.2.8zm-1.8 2.9c0-.3-.1-.5-.2-.7-.1-.2-.3-.4-.5-.5-.2-.1-.5-.2-.8-.3-.3-.1-.6-.1-1-.1h-4.6v3.3h4.6c.7 0 1.3-.2 1.8-.5.4-.4.7-.8.7-1.2zm1.1 6.1c.3-.2.5-.3.7-.5.2-.2.4-.4.5-.7.1-.2.2-.5.2-.8 0-.4-.1-.7-.3-1-.2-.3-.5-.5-.9-.7-.4-.2-.8-.3-1.4-.3h-5.2v3.8h5.2c.4 0 .8 0 1.2-.1.3-.1.7-.2 1-.4v-.3z" fill="white"/>
</svg>