<?xml version="1.0" encoding="UTF-8"?>
<svg width="32" height="32" viewBox="0 0 32 32" xmlns="http://www.w3.org/2000/svg">
  <rect width="32" height="32" rx="16" fill="#4285F4"/>
  <path d="M16 12.2c1.1 0 2.1.4 2.8 1.1l2.1-2.1C19.7 10 17.9 9.2 16 9.2c-3.3 0-6.1 2-7.3 4.8l2.4 1.9c.6-1.8 2.3-3.2 4.3-3.2z" fill="#EA4335"/>
  <path d="M23.2 16.2c0-.7-.1-1.3-.2-1.9H16v3.6h4.1c-.2 1-.8 1.9-1.7 2.5l2.3 1.8c1.4-1.3 2.2-3.2 2.2-5.4z" fill="#4285F4"/>
  <path d="M11.1 17c-.2-.5-.3-1-.3-1.6s.1-1.1.3-1.6l-2.4-1.9c-.5 1-.8 2.2-.8 3.4s.3 2.4.8 3.4l2.4-1.7z" fill="#FBBC05"/>
  <path d="M16 22.8c2.1 0 3.8-.7 5.1-1.9l-2.3-1.8c-.6.4-1.4.7-2.4.7-2 0-3.7-1.3-4.3-3.2l-2.4 1.9c1.2 2.8 4 4.7 7.3 4.7z" fill="#34A853"/>
</svg>