<svg xmlns="http://www.w3.org/2000/svg" viewBox="0 0 32 32">
  <g fill="none">
    <circle cx="16" cy="16" r="16" fill="#A2AAAD"/>
    <path fill="#000" d="M19.753 24.487h-7.506c-2.615 0-4.74-2.125-4.74-4.74V12.24c0-2.615 2.125-4.74 4.74-4.74h7.506c2.615 0 4.74 2.125 4.74 4.74v7.506c0 2.615-2.125 4.74-4.74 4.74z"/>
    <path fill="#FFF" d="M22.754 15.996c0 3.74-3.018 6.758-6.758 6.758s-6.758-3.018-6.758-6.758 3.018-6.758 6.758-6.758 6.758 3.018 6.758 6.758zm-6.758 5.491c3.033 0 5.491-2.458 5.491-5.491s-2.458-5.491-5.491-5.491-5.491 2.458-5.491 5.491 2.458 5.491 5.491 5.491z"/>
    <path fill="#FFF" d="M16.633 13.617l-.637 1.888-1.888.637 1.888.637.637 1.888.637-1.888 1.888-.637-1.888-.637-.637-1.888z"/>
  </g>
</svg>